<svg width="558" height="509" viewBox="0 0 558 509" fill="none" xmlns="http://www.w3.org/2000/svg">
<path d="M183.141 438.383H194.578V438.712H183.141V438.383Z" fill="#C21975"/>
<path d="M74.3872 236.28C60.3513 232.967 51.6585 218.904 54.9713 204.868C58.284 190.832 72.3479 182.139 86.3837 185.452C100.42 188.765 109.112 202.829 105.8 216.864C102.487 230.9 88.423 239.593 74.3872 236.28Z" fill="white"/>
<path d="M70.3236 236.267C56.2878 232.954 47.595 218.89 50.9078 204.855C54.2205 190.819 68.2844 182.126 82.3202 185.439C96.356 188.751 105.049 202.815 101.736 216.851C98.4233 230.887 84.3595 239.58 70.3236 236.267Z" fill="#9B1856"/>
<path d="M68.624 229.371C58.3827 225.129 53.5194 213.388 57.7615 203.147C62.0035 192.906 73.7446 188.042 83.9859 192.284C94.2271 196.526 99.0904 208.268 94.8484 218.509C90.6063 228.75 78.8652 233.613 68.624 229.371Z" fill="#F5F5F5"/>
<path d="M59.2904 210.834C59.2926 205.778 61.2043 200.909 64.6429 197.202C68.0814 193.495 72.7931 191.223 77.835 190.842C77.3348 190.842 76.8347 190.763 76.3082 190.763C70.985 190.763 65.8798 192.877 62.1157 196.641C58.3516 200.406 56.2369 205.511 56.2369 210.834C56.2369 216.157 58.3516 221.262 62.1157 225.027C65.8798 228.791 70.985 230.905 76.3082 230.905C76.8347 230.905 77.3348 230.905 77.835 230.905C72.7806 230.52 68.0594 228.236 64.6195 224.513C61.1796 220.79 59.2757 215.903 59.2904 210.834Z" fill="white"/>
<path d="M76.309 198.067L79.1782 206.886H88.457L80.955 212.348L83.8242 221.166L76.309 215.717L68.8069 221.166L71.6761 212.348L64.1741 206.886H73.4529L76.309 198.067Z" fill="#FFA318"/>
<path d="M72.1069 323.864L149.131 340.236C154.009 341.272 157.122 346.067 156.086 350.944L153.204 364.501C152.167 369.378 147.373 372.492 142.496 371.455L65.4711 355.083C60.5936 354.046 57.4801 349.252 58.5168 344.374L61.3983 330.818C62.435 325.94 67.2294 322.827 72.1069 323.864Z" fill="#C21975"/>
<path d="M106.264 338.395C107.59 337.532 109.134 337.064 110.715 337.046C112.297 337.028 113.851 337.461 115.196 338.293C116.541 339.126 117.621 340.324 118.31 341.748C118.999 343.172 119.268 344.763 119.086 346.334C118.905 347.906 118.279 349.393 117.283 350.622C116.287 351.851 114.962 352.771 113.463 353.274C111.963 353.778 110.351 353.844 108.815 353.465C107.28 353.087 105.883 352.279 104.79 351.136C104.653 351.548 104.385 351.904 104.027 352.149L97.3669 356.479C96.9244 356.764 96.3876 356.862 95.8727 356.754C95.3578 356.646 94.9064 356.339 94.6162 355.9C94.4718 355.682 94.3722 355.437 94.3231 355.18C94.2741 354.924 94.2766 354.659 94.3305 354.403C94.3844 354.148 94.4885 353.905 94.637 353.69C94.7855 353.474 94.9752 353.291 95.1953 353.149L101.829 348.819C102.193 348.59 102.624 348.488 103.053 348.53C102.326 346.73 102.25 344.734 102.836 342.885C103.422 341.035 104.634 339.448 106.264 338.395ZM105.777 348.608C106.414 349.592 107.327 350.365 108.403 350.829C109.479 351.294 110.668 351.428 111.821 351.217C112.973 351.005 114.037 350.456 114.877 349.639C115.717 348.823 116.297 347.776 116.542 346.63C116.787 345.484 116.686 344.291 116.253 343.203C115.82 342.114 115.074 341.178 114.109 340.514C113.144 339.849 112.004 339.486 110.832 339.469C109.661 339.453 108.511 339.785 107.528 340.422C106.213 341.278 105.291 342.62 104.963 344.154C104.635 345.688 104.928 347.29 105.777 348.608Z" fill="#FAFAFA"/>
<path d="M456.109 334.683C461.756 336.622 466.402 340.724 469.026 346.087C471.649 351.45 472.036 357.635 470.1 363.283C466.968 372.404 448.41 384.763 440.25 389.843C439.78 390.125 439.253 390.301 438.708 390.358C438.162 390.414 437.611 390.351 437.092 390.171C436.574 389.992 436.102 389.701 435.708 389.319C435.314 388.937 435.009 388.474 434.814 387.961C431.484 378.945 424.416 357.808 427.549 348.674C429.488 343.036 433.583 338.398 438.937 335.775C444.291 333.152 450.466 332.76 456.109 334.683ZM445.343 366.126C447.35 366.811 449.515 366.886 451.564 366.34C453.612 365.795 455.453 364.653 456.853 363.061C458.253 361.468 459.149 359.496 459.427 357.394C459.705 355.292 459.354 353.155 458.417 351.253C457.479 349.351 455.999 347.769 454.163 346.709C452.326 345.649 450.217 345.158 448.101 345.298C445.985 345.437 443.958 346.202 442.277 347.494C440.596 348.786 439.336 350.548 438.657 352.557C437.749 355.243 437.943 358.179 439.196 360.723C440.449 363.267 442.66 365.209 445.343 366.126Z" fill="#C21975"/>
<path d="M460.045 91.2486H470.758C472.002 91.2482 473.226 91.5556 474.321 92.1436C475.417 92.7315 476.35 93.5816 477.036 94.618L478.603 96.987C479.232 97.9368 480.086 98.7162 481.09 99.2559C482.093 99.7955 483.215 100.079 484.354 100.08H511.993C512.583 100.078 513.168 100.193 513.713 100.418C514.258 100.643 514.754 100.974 515.171 101.391C515.588 101.808 515.918 102.303 516.143 102.848C516.368 103.394 516.483 103.978 516.481 104.568V147.751H454.135V100.08L454.688 95.9341C454.855 94.6339 455.492 93.4396 456.479 92.5765C457.466 91.7135 458.734 91.2411 460.045 91.2486Z" fill="white"/>
<path d="M458.821 105.529H511.822V141.776H458.821V105.529Z" fill="#FAFAFA"/>
<path d="M454.149 147.751H516.495L525.708 114.439C525.873 113.851 525.899 113.233 525.784 112.633C525.67 112.033 525.418 111.468 525.048 110.982C524.678 110.496 524.2 110.102 523.653 109.832C523.105 109.562 522.502 109.423 521.891 109.425H470.785C469.042 109.417 467.346 109.986 465.961 111.043C464.575 112.1 463.578 113.586 463.125 115.269L454.149 147.751Z" fill="#9B1856"/>
<path d="M361.11 49.1057H316.756C316.173 49.0954 315.598 48.97 315.063 48.7365C314.529 48.5031 314.046 48.1663 313.642 47.7455C313.239 47.3247 312.922 46.8282 312.711 46.2846C312.5 45.741 312.399 45.1611 312.413 44.5781H365.467C365.48 45.1622 365.379 45.7432 365.167 46.2876C364.955 46.8321 364.637 47.3291 364.232 47.7501C363.827 48.1711 363.343 48.5076 362.807 48.7403C362.271 48.973 361.694 49.0972 361.11 49.1057Z" fill="white"/>
<path d="M330.154 49.1057H285.8C285.219 49.092 284.646 48.964 284.115 48.7291C283.584 48.4941 283.104 48.1568 282.703 47.7363C282.302 47.3159 281.988 46.8205 281.779 46.2787C281.569 45.7368 281.469 45.1589 281.483 44.5781H334.484C334.498 45.16 334.397 45.7389 334.187 46.2816C333.977 46.8244 333.661 47.3203 333.259 47.7409C332.857 48.1615 332.375 48.4986 331.843 48.7328C331.31 48.967 330.736 49.0937 330.154 49.1057Z" fill="#9B1856"/>
<path d="M361.505 47.7236H334.471C334.303 47.7187 334.139 47.6742 333.991 47.5937C333.844 47.5133 333.717 47.3991 333.622 47.2605C333.527 47.122 333.467 46.9629 333.445 46.7964C333.423 46.6298 333.441 46.4605 333.497 46.3021L348.33 2.04004C348.515 1.45381 348.881 0.941052 349.375 0.574771C349.869 0.20849 350.466 0.00734906 351.081 0H378.114C378.282 0.0048845 378.447 0.0493769 378.594 0.129846C378.741 0.210314 378.868 0.324484 378.963 0.46305C379.058 0.601616 379.119 0.760655 379.14 0.927205C379.162 1.09376 379.144 1.2631 379.088 1.42144L364.255 45.6836C364.07 46.2698 363.704 46.7825 363.21 47.1488C362.716 47.5151 362.119 47.7162 361.505 47.7236Z" fill="white"/>
<path d="M362.808 47.7236H335.775C335.607 47.7187 335.442 47.6742 335.295 47.5937C335.147 47.5133 335.021 47.3991 334.926 47.2605C334.831 47.122 334.77 46.9629 334.748 46.7964C334.727 46.6298 334.745 46.4605 334.801 46.3021L349.634 2.04004C349.819 1.45381 350.185 0.941052 350.679 0.574771C351.173 0.20849 351.769 0.00734906 352.384 0H379.418C379.586 0.0048845 379.75 0.0493769 379.898 0.129846C380.045 0.210314 380.172 0.324484 380.266 0.46305C380.361 0.601616 380.422 0.760655 380.444 0.927205C380.466 1.09376 380.448 1.2631 380.392 1.42144L365.559 45.6836C365.373 46.2698 365.008 46.7825 364.514 47.1488C364.02 47.5151 363.423 47.7162 362.808 47.7236Z" fill="#9B1856"/>
<path d="M359.794 23.8616C359.439 25.5594 358.32 26.9413 357.28 26.9413C356.24 26.9413 355.674 25.6252 355.964 23.8616C356.254 22.0979 357.438 20.7949 358.478 20.7949C359.518 20.7949 360.136 22.2032 359.794 23.8616Z" fill="white"/>
<path d="M301.028 23.2164C299.887 21.0485 299.384 18.6017 299.577 16.1596C299.77 13.7176 300.651 11.3801 302.117 9.41812C303.584 7.45609 305.577 5.94979 307.864 5.07371C310.152 4.19764 312.641 3.98765 315.043 4.46807C317.445 4.94849 319.662 6.09965 321.437 7.7882C323.212 9.47676 324.472 11.6336 325.071 14.0088C325.67 16.3841 325.584 18.8805 324.823 21.2089C324.062 23.5373 322.656 25.6023 320.77 27.1649L321.362 33.9167L316.098 29.6524C313.229 30.4815 310.161 30.2937 307.415 29.1209C304.669 27.948 302.412 25.8621 301.028 23.2164Z" fill="white"/>
<path d="M304.858 11.8979H319.335C319.471 11.8979 319.602 11.952 319.698 12.0483C319.794 12.1446 319.848 12.2751 319.848 12.4112V22.7035C319.85 22.7714 319.838 22.839 319.813 22.9021C319.788 22.9652 319.75 23.0225 319.702 23.0705C319.654 23.1186 319.597 23.1563 319.534 23.1815C319.471 23.2066 319.403 23.2186 319.335 23.2168H304.858C304.79 23.2186 304.722 23.2066 304.659 23.1815C304.596 23.1563 304.539 23.1186 304.491 23.0705C304.443 23.0225 304.405 22.9652 304.38 22.9021C304.354 22.839 304.342 22.7714 304.344 22.7035V12.4112C304.344 12.2751 304.398 12.1446 304.495 12.0483C304.591 11.952 304.721 11.8979 304.858 11.8979ZM305.094 21.927L309.464 17.5574L305.094 13.1878V21.927ZM305.634 12.714L310.004 17.0704L312.123 19.2026L318.611 12.714H305.634ZM319.138 13.2404L314.781 17.61L319.138 21.9797V13.2404ZM318.611 22.4535L314.242 18.0839L312.123 20.2029L310.004 18.0839L305.634 22.4535H318.611Z" fill="#FAFAFA"/>
<path d="M88.5624 143.092L109.134 127.641L88.5624 112.189L86.8514 114.466L104.396 127.641L86.8514 140.815L88.5624 143.092Z" fill="white"/>
<path d="M106.765 131.668C104.54 131.668 102.737 129.864 102.737 127.64C102.737 125.416 104.54 123.613 106.765 123.613C108.989 123.613 110.792 125.416 110.792 127.64C110.792 129.864 108.989 131.668 106.765 131.668Z" fill="#C21975"/>
<path d="M83.4022 113.334C83.4022 114.13 83.6384 114.909 84.081 115.571C84.5235 116.233 85.1525 116.75 85.8884 117.054C86.6243 117.359 87.4341 117.439 88.2153 117.284C88.9966 117.128 89.7142 116.745 90.2774 116.181C90.8407 115.618 91.2242 114.901 91.3796 114.119C91.535 113.338 91.4553 112.528 91.1505 111.792C90.8457 111.056 90.3294 110.427 89.6671 109.985C89.0048 109.542 88.2262 109.306 87.4296 109.306C86.3615 109.306 85.3371 109.73 84.5818 110.486C83.8265 111.241 83.4022 112.265 83.4022 113.334Z" fill="#C21975"/>
<path d="M87.4559 146.277C85.2317 146.277 83.4285 144.474 83.4285 142.25C83.4285 140.025 85.2317 138.222 87.4559 138.222C89.6802 138.222 91.4834 140.025 91.4834 142.25C91.4834 144.474 89.6802 146.277 87.4559 146.277Z" fill="#C21975"/>
<g filter="url(#filter0_f_151_121)">
<path d="M296.382 467.996C155.446 467.996 41.1938 461.326 41.1938 453.098C41.1938 444.869 155.446 438.199 296.382 438.199C437.319 438.199 551.57 444.869 551.57 453.098C551.57 461.326 437.319 467.996 296.382 467.996Z" fill="#C21975"/>
</g>
<path d="M382.3 85.6548H351.134L319.704 444.964H350.87C357.992 444.836 364.821 442.103 370.064 437.282C375.308 432.461 378.602 425.885 379.325 418.799L406.175 111.807C406.54 108.476 406.191 105.106 405.152 101.921C404.113 98.7359 402.407 95.8087 400.148 93.3344C397.89 90.8601 395.129 88.8954 392.052 87.5712C388.974 86.247 385.65 85.5937 382.3 85.6548Z" fill="#263238"/>
<path d="M401.608 121.691C401.676 121.011 401.991 120.38 402.493 119.916C402.995 119.453 403.65 119.19 404.333 119.177C404.654 119.171 404.974 119.234 405.269 119.362C405.565 119.489 405.83 119.678 406.046 119.916C406.263 120.154 406.427 120.435 406.526 120.741C406.625 121.047 406.658 121.371 406.623 121.691L404.517 145.763C404.446 146.441 404.13 147.069 403.629 147.53C403.127 147.991 402.474 148.252 401.793 148.264C401.472 148.27 401.154 148.207 400.86 148.08C400.565 147.954 400.301 147.766 400.084 147.529C399.868 147.293 399.704 147.013 399.604 146.709C399.503 146.404 399.469 146.082 399.502 145.763L401.608 121.691Z" fill="url(#paint0_linear_151_121)"/>
<path opacity="0.3" d="M401.608 121.691C401.676 121.011 401.991 120.38 402.493 119.916C402.995 119.453 403.65 119.19 404.333 119.177C404.654 119.171 404.974 119.234 405.269 119.362C405.565 119.489 405.83 119.678 406.046 119.916C406.263 120.154 406.427 120.435 406.526 120.741C406.625 121.047 406.658 121.371 406.623 121.691L404.517 145.763C404.446 146.441 404.13 147.069 403.629 147.53C403.127 147.991 402.474 148.252 401.793 148.264C401.472 148.27 401.154 148.207 400.86 148.08C400.565 147.954 400.301 147.766 400.084 147.529C399.868 147.293 399.704 147.013 399.604 146.709C399.503 146.404 399.469 146.082 399.502 145.763L401.608 121.691Z" fill="white"/>
<path d="M344.488 444.964H216.044C212.694 445.023 209.369 444.368 206.292 443.042C203.214 441.716 200.454 439.75 198.196 437.275C195.937 434.8 194.231 431.872 193.192 428.686C192.153 425.5 191.805 422.13 192.17 418.799L218.966 111.807C219.692 104.723 222.989 98.1502 228.232 93.3314C233.475 88.5127 240.302 85.7818 247.421 85.6548H375.917C379.267 85.5937 382.591 86.247 385.669 87.5712C388.747 88.8954 391.507 90.8601 393.766 93.3344C396.025 95.8087 397.73 98.7359 398.77 101.921C399.809 105.106 400.157 108.476 399.792 111.807L372.956 418.799C372.232 425.887 368.936 432.465 363.69 437.286C358.443 442.108 351.612 444.839 344.488 444.964Z" fill="url(#paint1_linear_151_121)"/>
<path d="M375.404 91.6561H342.013C340.926 91.6768 339.878 92.0615 339.035 92.7488C338.193 93.436 337.606 94.386 337.367 95.4466L337.143 96.4864C336.556 99.0674 335.12 101.377 333.066 103.047C331.012 104.717 328.458 105.651 325.811 105.699H294.079C291.573 105.753 289.147 104.815 287.328 103.09C285.51 101.365 284.445 98.9918 284.366 96.4864V95.4466C284.325 94.427 283.891 93.4628 283.155 92.7562C282.419 92.0495 281.438 91.6553 280.417 91.6561H247.04C241.549 91.7388 236.281 93.8378 232.237 97.5535C228.194 101.269 225.658 106.342 225.113 111.806L198.263 418.798C197.98 421.368 198.248 423.968 199.05 426.426C199.852 428.884 201.169 431.142 202.913 433.051C204.657 434.959 206.788 436.473 209.163 437.493C211.539 438.512 214.105 439.013 216.689 438.962H345.014C350.502 438.862 355.763 436.755 359.803 433.04C363.843 429.325 366.382 424.258 366.941 418.798L393.791 111.806C394.071 109.241 393.803 106.646 393.002 104.192C392.202 101.739 390.888 99.4842 389.149 97.578C387.41 95.6717 385.284 94.1577 382.914 93.1367C380.544 92.1156 377.984 91.6109 375.404 91.6561Z" fill="url(#paint2_linear_151_121)"/>
<path opacity="0.9" d="M375.404 91.6561H342.013C340.926 91.6768 339.878 92.0615 339.035 92.7488C338.193 93.436 337.606 94.386 337.367 95.4466L337.143 96.4864C336.556 99.0674 335.12 101.377 333.066 103.047C331.012 104.717 328.458 105.651 325.811 105.699H294.079C291.573 105.753 289.147 104.815 287.328 103.09C285.51 101.365 284.445 98.9918 284.366 96.4864V95.4466C284.325 94.427 283.891 93.4628 283.155 92.7562C282.419 92.0495 281.438 91.6553 280.417 91.6561H247.04C241.549 91.7388 236.281 93.8378 232.237 97.5535C228.194 101.269 225.658 106.342 225.113 111.806L198.263 418.798C197.98 421.368 198.248 423.968 199.05 426.426C199.852 428.884 201.169 431.142 202.913 433.051C204.657 434.959 206.788 436.473 209.163 437.493C211.539 438.512 214.105 439.013 216.689 438.962H345.014C350.502 438.862 355.763 436.755 359.803 433.04C363.843 429.325 366.382 424.258 366.941 418.798L393.791 111.806C394.071 109.241 393.803 106.646 393.002 104.192C392.202 101.739 390.888 99.4842 389.149 97.578C387.41 95.6717 385.284 94.1577 382.914 93.1367C380.544 92.1156 377.984 91.6109 375.404 91.6561Z" fill="white"/>
<g opacity="0.2">
<path d="M303.108 95.052C303.04 95.7424 302.721 96.3839 302.212 96.8547C301.702 97.3254 301.037 97.5925 300.344 97.6053C300.017 97.611 299.693 97.547 299.392 97.4176C299.092 97.2882 298.823 97.0964 298.602 96.8548C298.382 96.6133 298.216 96.3276 298.114 96.0168C298.013 95.7059 297.979 95.3771 298.014 95.052C298.082 94.3616 298.401 93.7201 298.91 93.2494C299.42 92.7787 300.085 92.5115 300.778 92.4987C301.106 92.4909 301.431 92.5534 301.732 92.6821C302.034 92.8108 302.304 93.0026 302.525 93.2446C302.746 93.4866 302.912 93.7732 303.012 94.085C303.113 94.3968 303.146 94.7266 303.108 95.052Z" fill="#B3B3B3"/>
<path d="M321.428 92.4984H312.676C311.982 92.5137 311.317 92.7814 310.806 93.2513C310.294 93.7213 309.972 94.3613 309.899 95.0518C309.863 95.3768 309.897 95.7057 309.999 96.0165C310.1 96.3273 310.266 96.613 310.487 96.8546C310.707 97.0961 310.976 97.288 311.277 97.4174C311.577 97.5468 311.901 97.6107 312.228 97.6051H320.981C321.674 97.5922 322.339 97.3251 322.848 96.8544C323.358 96.3836 323.677 95.7422 323.745 95.0518C323.782 94.7274 323.75 94.3988 323.65 94.088C323.55 93.7771 323.385 93.4912 323.166 93.2494C322.946 93.0076 322.678 92.8155 322.378 92.686C322.078 92.5564 321.755 92.4925 321.428 92.4984Z" fill="#B3B3B3"/>
</g>
<g opacity="0.2">
<path d="M239.551 105.713H242.249L242.486 103.001H239.788L239.551 105.713Z" fill="#B3B3B3"/>
<path d="M245.184 103.001L244.947 105.713H247.658L247.895 103.001L248.119 100.303H245.421L245.184 103.001Z" fill="#B3B3B3"/>
<path d="M251.068 97.6055L250.831 100.304L250.594 103.002L250.357 105.713H253.055L253.292 103.002L253.529 100.304L253.766 97.6055H251.068Z" fill="#B3B3B3"/>
</g>
<path opacity="0.2" d="M379.089 97.79L378.391 105.687H366.546L366.717 103.7H365.401L365.743 99.7511H367.059L367.244 97.7769L379.089 97.79ZM372.311 99.7642H368.362L368.007 103.713H371.955L372.311 99.7642Z" fill="#B3B3B3"/>
<g opacity="0.2">
<path d="M320.402 430.091H243.197C240.854 430.091 241.17 426.458 243.513 426.458H320.718C323.061 426.458 322.745 430.091 320.402 430.091Z" fill="#B3B3B3"/>
</g>
<path d="M151.21 222.718H233.68C234.887 222.741 236.084 222.505 237.193 222.028C238.302 221.551 239.296 220.843 240.109 219.951C240.923 219.059 241.537 218.004 241.91 216.857C242.283 215.709 242.407 214.494 242.274 213.295L237.839 162.478C237.567 159.931 236.376 157.57 234.489 155.838C232.602 154.105 230.147 153.121 227.586 153.068H145.116C143.91 153.046 142.713 153.281 141.605 153.757C140.497 154.234 139.503 154.94 138.688 155.83C137.874 156.72 137.259 157.773 136.883 158.92C136.507 160.066 136.38 161.279 136.509 162.478L140.957 213.295C141.226 215.845 142.416 218.209 144.303 219.944C146.191 221.679 148.647 222.665 151.21 222.718Z" fill="url(#paint3_linear_151_121)"/>
<path opacity="0.4" d="M151.21 222.718H233.68C234.887 222.741 236.084 222.505 237.193 222.028C238.302 221.551 239.296 220.843 240.109 219.951C240.923 219.059 241.537 218.004 241.91 216.857C242.283 215.709 242.407 214.494 242.274 213.295L237.839 162.478C237.567 159.931 236.376 157.57 234.489 155.838C232.602 154.105 230.147 153.121 227.586 153.068H145.116C143.91 153.046 142.713 153.281 141.605 153.757C140.497 154.234 139.503 154.94 138.688 155.83C137.874 156.72 137.259 157.773 136.883 158.92C136.507 160.066 136.38 161.279 136.509 162.478L140.957 213.295C141.226 215.845 142.416 218.209 144.303 219.944C146.191 221.679 148.647 222.665 151.21 222.718Z" fill="white"/>
<path opacity="0.8" d="M151.526 218.968H232.707C233.494 218.982 234.275 218.828 234.998 218.517C235.721 218.205 236.369 217.744 236.899 217.162C237.43 216.581 237.83 215.893 238.074 215.144C238.318 214.396 238.4 213.604 238.313 212.821L234.365 168.244C234.195 166.579 233.42 165.034 232.188 163.902C230.956 162.769 229.352 162.127 227.679 162.097H146.578C145.791 162.083 145.01 162.237 144.287 162.548C143.564 162.86 142.916 163.321 142.385 163.903C141.855 164.484 141.454 165.172 141.21 165.921C140.966 166.669 140.885 167.461 140.971 168.244L144.919 212.821C145.088 214.473 145.851 216.007 147.066 217.138C148.282 218.269 149.867 218.919 151.526 218.968Z" fill="white"/>
<path opacity="0.8" d="M228.956 157.635C229.004 158.106 229.224 158.544 229.573 158.864C229.922 159.184 230.377 159.365 230.851 159.372C231.074 159.377 231.295 159.335 231.5 159.247C231.704 159.16 231.888 159.029 232.038 158.864C232.187 158.699 232.3 158.504 232.368 158.292C232.435 158.08 232.457 157.856 232.43 157.635C232.382 157.163 232.162 156.726 231.813 156.406C231.464 156.086 231.009 155.905 230.535 155.897C230.313 155.892 230.091 155.935 229.887 156.022C229.682 156.11 229.498 156.241 229.349 156.405C229.199 156.57 229.086 156.765 229.018 156.977C228.951 157.189 228.929 157.414 228.956 157.635Z" fill="white"/>
<path opacity="0.8" d="M223.533 157.635C223.581 158.106 223.801 158.544 224.15 158.864C224.499 159.184 224.954 159.365 225.428 159.372C225.65 159.375 225.871 159.331 226.075 159.243C226.28 159.155 226.463 159.024 226.613 158.86C226.764 158.696 226.878 158.502 226.948 158.291C227.018 158.08 227.043 157.856 227.02 157.635C226.969 157.165 226.749 156.729 226.4 156.409C226.051 156.089 225.598 155.908 225.125 155.898C224.903 155.895 224.682 155.939 224.478 156.027C224.273 156.115 224.09 156.246 223.94 156.41C223.789 156.574 223.675 156.768 223.605 156.979C223.535 157.19 223.51 157.414 223.533 157.635Z" fill="white"/>
<path opacity="0.8" d="M218.111 157.635C218.162 158.105 218.382 158.541 218.731 158.861C219.08 159.18 219.533 159.362 220.006 159.372C220.228 159.375 220.449 159.331 220.653 159.243C220.858 159.155 221.041 159.024 221.191 158.86C221.342 158.696 221.456 158.502 221.526 158.291C221.596 158.08 221.621 157.856 221.599 157.635C221.547 157.165 221.327 156.729 220.978 156.409C220.629 156.089 220.176 155.908 219.703 155.898C219.481 155.895 219.26 155.939 219.056 156.027C218.852 156.115 218.668 156.246 218.518 156.41C218.368 156.574 218.254 156.768 218.183 156.979C218.113 157.19 218.088 157.414 218.111 157.635Z" fill="white"/>
<path opacity="0.1" d="M195.972 206.358H225.178L222.401 174.705H193.208L195.972 206.358Z" fill="#B3B3B3"/>
<path d="M154.264 178.22H185.219C185.445 178.225 185.67 178.182 185.878 178.093C186.086 178.004 186.272 177.871 186.424 177.704C186.577 177.537 186.691 177.339 186.76 177.123C186.829 176.908 186.852 176.681 186.825 176.456C186.78 175.979 186.56 175.535 186.208 175.209C185.856 174.884 185.396 174.7 184.917 174.692H153.961C153.735 174.687 153.51 174.73 153.302 174.819C153.094 174.908 152.908 175.041 152.756 175.208C152.604 175.375 152.489 175.573 152.42 175.788C152.351 176.004 152.329 176.231 152.355 176.456C152.4 176.933 152.62 177.377 152.972 177.703C153.324 178.028 153.784 178.212 154.264 178.22Z" fill="url(#paint4_linear_151_121)"/>
<path d="M160.16 185.248H185.838C186.063 185.253 186.286 185.21 186.493 185.122C186.7 185.034 186.886 184.902 187.038 184.737C187.19 184.571 187.305 184.375 187.375 184.161C187.445 183.947 187.468 183.721 187.444 183.497C187.398 183.02 187.179 182.576 186.827 182.251C186.475 181.926 186.015 181.741 185.535 181.734H159.857C159.631 181.729 159.407 181.772 159.199 181.861C158.991 181.95 158.805 182.082 158.652 182.25C158.5 182.417 158.386 182.615 158.316 182.83C158.247 183.045 158.225 183.273 158.252 183.497C158.297 183.974 158.517 184.416 158.87 184.739C159.222 185.062 159.682 185.244 160.16 185.248Z" fill="url(#paint5_linear_151_121)"/>
<path d="M158.66 192.289H186.457C186.683 192.292 186.906 192.248 187.113 192.158C187.32 192.068 187.506 191.936 187.657 191.769C187.809 191.602 187.924 191.405 187.994 191.191C188.064 190.976 188.087 190.75 188.063 190.526C188.009 190.053 187.787 189.615 187.436 189.294C187.085 188.972 186.63 188.788 186.155 188.775H158.358C158.133 188.772 157.911 188.816 157.705 188.905C157.499 188.994 157.315 189.126 157.163 189.291C157.011 189.456 156.896 189.652 156.826 189.864C156.755 190.077 156.73 190.302 156.752 190.526C156.8 191.002 157.02 191.444 157.372 191.769C157.724 192.094 158.182 192.279 158.66 192.289Z" fill="url(#paint6_linear_151_121)"/>
<path d="M162.45 199.33H187.075C187.301 199.333 187.524 199.289 187.731 199.199C187.938 199.109 188.124 198.977 188.275 198.81C188.427 198.643 188.542 198.446 188.612 198.232C188.682 198.017 188.705 197.791 188.681 197.567C188.63 197.089 188.407 196.647 188.053 196.322C187.699 195.998 187.24 195.813 186.76 195.803H162.134C161.909 195.8 161.685 195.844 161.479 195.934C161.272 196.024 161.086 196.156 160.934 196.323C160.783 196.49 160.668 196.687 160.598 196.901C160.528 197.116 160.505 197.342 160.529 197.567C160.58 198.044 160.803 198.486 161.157 198.811C161.511 199.135 161.97 199.32 162.45 199.33Z" fill="url(#paint7_linear_151_121)"/>
<path d="M158.844 206.359H187.694C187.918 206.362 188.14 206.317 188.345 206.228C188.55 206.139 188.734 206.008 188.885 205.842C189.035 205.677 189.149 205.481 189.218 205.268C189.288 205.056 189.311 204.83 189.287 204.608C189.241 204.131 189.022 203.687 188.669 203.361C188.317 203.036 187.858 202.852 187.378 202.844H158.528C158.303 202.841 158.079 202.886 157.872 202.976C157.665 203.065 157.48 203.198 157.328 203.365C157.176 203.531 157.062 203.728 156.992 203.943C156.922 204.157 156.898 204.384 156.922 204.608C156.977 205.083 157.201 205.522 157.555 205.844C157.908 206.166 158.366 206.349 158.844 206.359Z" fill="url(#paint8_linear_151_121)"/>
<g opacity="0.5">
<path d="M154.264 178.22H185.219C185.445 178.225 185.67 178.182 185.878 178.093C186.086 178.004 186.272 177.871 186.424 177.704C186.577 177.537 186.691 177.339 186.76 177.123C186.829 176.908 186.852 176.681 186.825 176.456C186.78 175.979 186.56 175.535 186.208 175.209C185.856 174.884 185.396 174.7 184.917 174.692H153.961C153.735 174.687 153.51 174.73 153.302 174.819C153.094 174.908 152.908 175.041 152.756 175.208C152.604 175.375 152.489 175.573 152.42 175.788C152.351 176.004 152.329 176.231 152.355 176.456C152.4 176.933 152.62 177.377 152.972 177.703C153.324 178.028 153.784 178.212 154.264 178.22Z" fill="white"/>
<path d="M160.16 185.248H185.838C186.063 185.253 186.286 185.21 186.493 185.122C186.7 185.034 186.886 184.902 187.038 184.737C187.19 184.571 187.305 184.375 187.375 184.161C187.445 183.947 187.468 183.721 187.444 183.497C187.398 183.02 187.179 182.576 186.827 182.251C186.475 181.926 186.015 181.741 185.535 181.734H159.857C159.631 181.729 159.407 181.772 159.199 181.861C158.991 181.95 158.805 182.082 158.652 182.25C158.5 182.417 158.386 182.615 158.316 182.83C158.247 183.045 158.225 183.273 158.252 183.497C158.297 183.974 158.517 184.416 158.87 184.739C159.222 185.062 159.682 185.244 160.16 185.248Z" fill="white"/>
<path d="M158.66 192.289H186.457C186.683 192.292 186.906 192.248 187.113 192.158C187.32 192.068 187.506 191.936 187.657 191.769C187.809 191.602 187.924 191.405 187.994 191.191C188.064 190.976 188.087 190.75 188.063 190.526C188.009 190.053 187.787 189.615 187.436 189.294C187.085 188.972 186.63 188.788 186.155 188.775H158.358C158.133 188.772 157.911 188.816 157.705 188.905C157.499 188.994 157.315 189.126 157.163 189.291C157.011 189.456 156.896 189.652 156.826 189.864C156.755 190.077 156.73 190.302 156.752 190.526C156.8 191.002 157.02 191.444 157.372 191.769C157.724 192.094 158.182 192.279 158.66 192.289Z" fill="white"/>
<path d="M162.45 199.33H187.075C187.301 199.333 187.524 199.289 187.731 199.199C187.938 199.109 188.124 198.977 188.275 198.81C188.427 198.643 188.542 198.446 188.612 198.232C188.682 198.017 188.705 197.791 188.681 197.567C188.63 197.089 188.407 196.647 188.053 196.322C187.699 195.998 187.24 195.813 186.76 195.803H162.134C161.909 195.8 161.685 195.844 161.479 195.934C161.272 196.024 161.086 196.156 160.934 196.323C160.783 196.49 160.668 196.687 160.598 196.901C160.528 197.116 160.505 197.342 160.529 197.567C160.58 198.044 160.803 198.486 161.157 198.811C161.511 199.135 161.97 199.32 162.45 199.33Z" fill="white"/>
<path d="M158.844 206.359H187.694C187.918 206.362 188.14 206.317 188.345 206.228C188.55 206.139 188.734 206.008 188.885 205.842C189.035 205.677 189.149 205.481 189.218 205.268C189.288 205.056 189.311 204.83 189.287 204.608C189.241 204.131 189.022 203.687 188.669 203.361C188.317 203.036 187.858 202.852 187.378 202.844H158.528C158.303 202.841 158.079 202.886 157.872 202.976C157.665 203.065 157.48 203.198 157.328 203.365C157.176 203.531 157.062 203.728 156.992 203.943C156.922 204.157 156.898 204.384 156.922 204.608C156.977 205.083 157.201 205.522 157.555 205.844C157.908 206.166 158.366 206.349 158.844 206.359Z" fill="white"/>
</g>
<path d="M202.843 182.774C203.344 182.272 203.939 181.874 204.594 181.603C205.249 181.332 205.951 181.192 206.66 181.192C207.369 181.192 208.071 181.332 208.726 181.603C209.381 181.874 209.976 182.272 210.477 182.774L213.214 185.524L215.965 182.774C216.977 181.761 218.35 181.193 219.782 181.193C221.213 181.193 222.586 181.761 223.599 182.774C224.611 183.786 225.18 185.159 225.18 186.59C225.18 188.022 224.611 189.395 223.599 190.407L213.214 200.778L202.843 190.407C202.342 189.906 201.944 189.311 201.672 188.656C201.401 188.001 201.261 187.299 201.261 186.59C201.261 185.881 201.401 185.179 201.672 184.525C201.944 183.87 202.342 183.275 202.843 182.774Z" fill="url(#paint9_linear_151_121)"/>
<path d="M215.412 148.751H258.227C258.853 148.76 259.474 148.636 260.048 148.388C260.623 148.139 261.138 147.771 261.56 147.308C261.982 146.845 262.301 146.298 262.495 145.703C262.69 145.107 262.756 144.478 262.688 143.855L260.385 117.532C260.251 116.217 259.643 114.996 258.674 114.098C257.705 113.199 256.442 112.684 255.12 112.649H212.253C211.628 112.638 211.007 112.76 210.433 113.007C209.858 113.255 209.342 113.622 208.92 114.083C208.498 114.545 208.179 115.092 207.985 115.686C207.79 116.281 207.724 116.91 207.792 117.532L210.095 143.855C210.23 145.18 210.845 146.41 211.825 147.312C212.805 148.214 214.081 148.726 215.412 148.751Z" fill="url(#paint10_linear_151_121)"/>
<path opacity="0.4" d="M215.412 148.751H258.227C258.853 148.76 259.474 148.636 260.048 148.388C260.623 148.139 261.138 147.771 261.56 147.308C261.982 146.845 262.301 146.298 262.495 145.703C262.69 145.107 262.756 144.478 262.688 143.855L260.385 117.532C260.251 116.217 259.643 114.996 258.674 114.098C257.705 113.199 256.442 112.684 255.12 112.649H212.253C211.628 112.638 211.007 112.76 210.433 113.007C209.858 113.255 209.342 113.622 208.92 114.083C208.498 114.545 208.179 115.092 207.985 115.686C207.79 116.281 207.724 116.91 207.792 117.532L210.095 143.855C210.23 145.18 210.845 146.41 211.825 147.312C212.805 148.214 214.081 148.726 215.412 148.751Z" fill="white"/>
<path opacity="0.8" d="M215.583 146.803H257.7C258.109 146.809 258.515 146.728 258.891 146.566C259.267 146.403 259.604 146.163 259.88 145.861C260.156 145.559 260.365 145.201 260.493 144.812C260.621 144.423 260.665 144.012 260.622 143.605L258.595 120.467C258.505 119.603 258.102 118.802 257.462 118.215C256.822 117.628 255.989 117.296 255.12 117.282H213.004C212.595 117.274 212.189 117.353 211.813 117.514C211.438 117.675 211.1 117.914 210.824 118.215C210.548 118.516 210.339 118.873 210.211 119.261C210.083 119.649 210.039 120.06 210.082 120.467L212.109 143.605C212.198 144.47 212.601 145.272 213.241 145.861C213.881 146.45 214.714 146.785 215.583 146.803Z" fill="white"/>
<path opacity="0.8" d="M255.818 114.965C255.843 115.211 255.958 115.439 256.139 115.606C256.321 115.773 256.558 115.868 256.805 115.873C256.921 115.874 257.035 115.85 257.141 115.804C257.248 115.757 257.343 115.689 257.421 115.603C257.499 115.518 257.558 115.417 257.595 115.307C257.632 115.197 257.645 115.081 257.634 114.965C257.608 114.72 257.494 114.492 257.312 114.325C257.13 114.157 256.894 114.062 256.647 114.057C256.531 114.057 256.416 114.08 256.31 114.127C256.204 114.173 256.109 114.242 256.031 114.327C255.953 114.413 255.893 114.514 255.857 114.624C255.82 114.734 255.807 114.85 255.818 114.965Z" fill="white"/>
<path opacity="0.8" d="M252.962 114.965C252.984 115.21 253.096 115.437 253.276 115.605C253.455 115.772 253.69 115.868 253.936 115.873C254.051 115.874 254.166 115.85 254.272 115.803C254.378 115.757 254.474 115.689 254.552 115.603C254.63 115.518 254.689 115.417 254.726 115.307C254.763 115.197 254.776 115.08 254.765 114.965C254.739 114.719 254.625 114.492 254.443 114.324C254.261 114.157 254.025 114.062 253.778 114.057C253.662 114.054 253.546 114.076 253.44 114.122C253.333 114.168 253.238 114.237 253.16 114.323C253.083 114.409 253.025 114.511 252.991 114.622C252.956 114.733 252.946 114.85 252.962 114.965Z" fill="white"/>
<path opacity="0.8" d="M250.145 114.965C250.171 115.211 250.285 115.439 250.467 115.606C250.649 115.773 250.885 115.868 251.132 115.873C251.248 115.876 251.363 115.854 251.47 115.808C251.577 115.762 251.672 115.694 251.749 115.607C251.827 115.521 251.885 115.419 251.919 115.308C251.953 115.197 251.963 115.08 251.948 114.965C251.926 114.721 251.814 114.493 251.634 114.326C251.455 114.158 251.22 114.063 250.974 114.057C250.858 114.057 250.744 114.08 250.638 114.127C250.531 114.173 250.436 114.242 250.358 114.327C250.28 114.413 250.221 114.514 250.184 114.624C250.147 114.734 250.134 114.85 250.145 114.965Z" fill="white"/>
<path d="M126.573 52.1195L155.567 45.3545L167.505 96.5659L129.731 105.371L119.834 62.9646L126.573 52.1195Z" fill="url(#paint11_linear_151_121)"/>
<path opacity="0.5" d="M126.573 52.1195L155.567 45.3545L167.505 96.5659L129.731 105.371L119.834 62.9646L126.573 52.1195Z" fill="white"/>
<path opacity="0.4" d="M126.573 52.1196L128.626 60.9115L119.834 62.9647L126.573 52.1196Z" fill="white"/>
<path d="M129.468 69.4667L151.843 64.3205C152.125 64.2515 152.371 64.0762 152.527 63.8311C152.684 63.586 152.741 63.29 152.685 63.0044C152.616 62.7217 152.441 62.4765 152.196 62.3196C151.951 62.1628 151.655 62.1064 151.369 62.162L129.073 67.4266C128.791 67.4957 128.546 67.671 128.389 67.916C128.232 68.1611 128.175 68.4572 128.231 68.7428C128.322 68.9877 128.495 69.1936 128.72 69.3255C128.946 69.4575 129.21 69.5073 129.468 69.4667Z" fill="url(#paint12_linear_151_121)"/>
<path d="M134.733 72.8885L152.869 68.6505C153.152 68.5815 153.397 68.4062 153.554 68.1611C153.711 67.9161 153.767 67.62 153.712 67.3344C153.646 67.0507 153.47 66.8044 153.224 66.6492C152.977 66.4939 152.68 66.4422 152.395 66.5052L134.246 70.73C133.963 70.7991 133.718 70.9744 133.561 71.2194C133.404 71.4645 133.348 71.7606 133.403 72.0462C133.475 72.3299 133.653 72.5753 133.9 72.7319C134.148 72.8886 134.445 72.9446 134.733 72.8885Z" fill="url(#paint13_linear_151_121)"/>
<path d="M135.312 77.3498L153.857 73.0328C154.138 72.9609 154.381 72.785 154.537 72.5407C154.693 72.2964 154.751 72.0019 154.699 71.7166C154.627 71.4357 154.451 71.1924 154.207 71.0361C153.963 70.8797 153.668 70.8219 153.383 70.8743L134.733 75.165C134.452 75.2369 134.209 75.4127 134.052 75.657C133.896 75.9013 133.838 76.1958 133.891 76.4811C133.919 76.6357 133.98 76.7825 134.069 76.912C134.158 77.0415 134.273 77.1508 134.407 77.2328C134.541 77.3147 134.691 77.3675 134.847 77.3876C135.003 77.4078 135.161 77.3949 135.312 77.3498Z" fill="url(#paint14_linear_151_121)"/>
<path d="M132.588 82.6147L154.883 77.3501C155.165 77.2811 155.409 77.1053 155.564 76.8597C155.719 76.6141 155.772 76.318 155.713 76.0339C155.65 75.7478 155.476 75.4983 155.229 75.3404C154.982 75.1825 154.683 75.1289 154.396 75.1916L132.101 80.4167C131.818 80.4858 131.573 80.661 131.416 80.9061C131.259 81.1512 131.203 81.4473 131.258 81.7329C131.322 82.0238 131.496 82.2787 131.744 82.4433C131.992 82.608 132.295 82.6694 132.588 82.6147Z" fill="url(#paint15_linear_151_121)"/>
<path d="M137.747 86.0239L155.897 81.7859C156.183 81.7229 156.432 81.5489 156.59 81.3021C156.748 81.0553 156.802 80.7559 156.739 80.4697C156.67 80.187 156.495 79.9418 156.25 79.785C156.005 79.6281 155.709 79.5717 155.423 79.6274L137.286 83.8522C137.004 83.9213 136.758 84.0965 136.602 84.3416C136.445 84.5867 136.388 84.8827 136.444 85.1683C136.504 85.4541 136.675 85.7045 136.919 85.8648C137.163 86.0251 137.461 86.0823 137.747 86.0239Z" fill="url(#paint16_linear_151_121)"/>
<path d="M138.378 90.498L156.923 86.1678C157.204 86.0959 157.447 85.9201 157.604 85.6758C157.76 85.4315 157.818 85.137 157.765 84.8517C157.693 84.5715 157.517 84.3294 157.272 84.1752C157.027 84.021 156.733 83.9664 156.449 84.0225L137.905 88.3395C137.622 88.4085 137.377 88.5838 137.22 88.8289C137.063 89.074 137.007 89.37 137.062 89.6556C137.134 89.9366 137.31 90.1799 137.554 90.3362C137.799 90.4925 138.093 90.5504 138.378 90.498Z" fill="url(#paint17_linear_151_121)"/>
<path d="M422.706 34.878C424.058 30.466 426.632 26.5277 430.132 23.52C433.631 20.5123 437.912 18.5584 442.477 17.8852C447.042 17.2119 451.704 17.8468 455.923 19.7162C460.142 21.5857 463.744 24.613 466.311 28.4469C468.879 32.2809 470.307 36.7643 470.43 41.377C470.552 45.9898 469.365 50.5428 467.004 54.5077C464.644 58.4726 461.208 61.687 457.094 63.778C452.981 65.8689 448.359 66.7506 443.764 66.3208L435.552 76.0998L434.235 63.3989C429.33 60.6925 425.506 56.3797 423.407 51.1856C421.307 45.9916 421.059 40.233 422.706 34.878Z" fill="url(#paint18_linear_151_121)"/>
<path d="M439.052 36.4574L440.158 42.8012L435.512 41.8141L435.814 45.9863L440.934 47.0787L442.053 53.3436L446.238 54.2386L445.12 47.9605L450.305 49.0661L451.424 55.331L455.57 56.2128L454.451 49.9479L459.11 50.935L458.847 46.776L453.688 45.6704L452.543 39.3266L457.189 40.3137L456.899 36.1415L451.766 35.0623L450.608 28.7842L446.462 27.9024L447.581 34.1805L442.395 33.0749L441.277 26.7969L437.131 25.915L438.249 32.1931L433.551 31.1928L433.867 35.365L439.052 36.4574ZM443.198 37.3392L448.397 38.4448L449.542 44.8018L444.343 43.6962L443.198 37.3392Z" fill="white"/>
<path d="M429.274 262.443L500.273 247.352L510.196 294.032L439.196 309.124L429.274 262.443Z" fill="url(#paint19_linear_151_121)"/>
<path opacity="0.6" d="M429.274 262.443L500.273 247.352L510.196 294.032L439.196 309.124L429.274 262.443Z" fill="white"/>
<path d="M481.393 277.958L507.137 294.673L464.678 303.702L481.393 277.958Z" fill="url(#paint20_linear_151_121)"/>
<path opacity="0.3" d="M481.393 277.958L507.137 294.673L464.678 303.702L481.393 277.958Z" fill="white"/>
<path d="M439.922 308.966L453.347 268.547L482.052 300.003L439.922 308.966Z" fill="url(#paint21_linear_151_121)"/>
<path opacity="0.8" d="M471.195 272.299C469.177 270.988 468.603 268.29 469.914 266.272C471.224 264.255 473.922 263.681 475.94 264.992C477.958 266.302 478.531 269 477.221 271.018C475.911 273.036 473.213 273.609 471.195 272.299Z" fill="white"/>
<path d="M438.184 310.677L511.757 295.041L501.228 245.791L427.655 261.427L438.184 310.677ZM508.638 293.014L440.198 307.558L430.866 263.454L499.306 248.91L508.638 293.014Z" fill="url(#paint22_linear_151_121)"/>
<path d="M118.151 303.782C104.182 297.996 97.5492 281.982 103.335 268.013C109.121 254.045 125.135 247.412 139.103 253.198C153.072 258.983 159.705 274.997 153.919 288.966C148.133 302.934 132.119 309.567 118.151 303.782Z" fill="white"/>
<path opacity="0.6" d="M118.151 303.782C104.182 297.996 97.5492 281.982 103.335 268.013C109.121 254.045 125.135 247.412 139.103 253.198C153.072 258.983 159.705 274.997 153.919 288.966C148.133 302.934 132.119 309.567 118.151 303.782Z" fill="white"/>
<path d="M115.925 272.048C116.06 270.372 116.804 268.803 118.018 267.639C119.308 266.441 120.995 265.761 122.756 265.731C127.009 265.482 131.275 265.526 135.523 265.862C136.853 266.03 138.1 266.6 139.097 267.496C140.095 268.393 140.794 269.572 141.103 270.877C141.722 273.075 141.603 283.196 141.235 285.354C141.066 286.717 140.475 287.993 139.545 289.003C138.616 290.013 137.393 290.707 136.049 290.988C134.009 291.514 124.006 291.448 121.756 291.08C120.394 290.915 119.118 290.33 118.106 289.405C117.094 288.48 116.396 287.261 116.109 285.92C115.517 283.683 115.728 274.088 115.925 272.048ZM118.307 284.946C118.406 285.987 118.875 286.957 119.629 287.682C120.382 288.406 121.37 288.837 122.414 288.895C124.493 289.119 133.798 289.237 135.733 288.697C136.578 288.492 137.339 288.033 137.913 287.38C138.488 286.728 138.848 285.915 138.945 285.052C139.267 280.719 139.267 276.368 138.945 272.035C138.846 270.997 138.379 270.028 137.628 269.304C136.878 268.58 135.893 268.148 134.851 268.087C130.623 267.784 126.379 267.784 122.151 268.087C121.11 268.186 120.14 268.654 119.415 269.408C118.691 270.161 118.26 271.149 118.202 272.193C117.938 276.441 117.973 280.703 118.307 284.946ZM128.626 271.864C129.928 271.864 131.2 272.25 132.282 272.973C133.364 273.696 134.208 274.724 134.706 275.926C135.204 277.129 135.334 278.452 135.08 279.729C134.826 281.005 134.2 282.178 133.279 283.098C132.359 284.018 131.186 284.645 129.91 284.899C128.633 285.153 127.31 285.023 126.108 284.524C124.905 284.026 123.877 283.183 123.154 282.101C122.431 281.019 122.045 279.746 122.045 278.445C122.045 276.699 122.739 275.026 123.973 273.791C125.207 272.557 126.881 271.864 128.626 271.864ZM128.626 282.762C129.475 282.756 130.303 282.5 131.005 282.024C131.708 281.548 132.254 280.875 132.574 280.089C132.894 279.303 132.973 278.439 132.803 277.608C132.632 276.777 132.219 276.015 131.615 275.419C131.011 274.822 130.244 274.418 129.411 274.258C128.578 274.097 127.715 274.188 126.933 274.517C126.151 274.847 125.485 275.401 125.018 276.109C124.55 276.818 124.304 277.649 124.309 278.497C124.305 279.068 124.416 279.634 124.634 280.161C124.853 280.688 125.174 281.166 125.58 281.567C125.986 281.968 126.468 282.284 126.998 282.496C127.528 282.708 128.095 282.812 128.665 282.801L128.626 282.762ZM120.255 271.614C120.255 271.922 120.347 272.222 120.518 272.478C120.689 272.734 120.933 272.933 121.217 273.05C121.502 273.167 121.815 273.197 122.116 273.136C122.418 273.075 122.694 272.926 122.911 272.707C123.128 272.489 123.275 272.211 123.333 271.909C123.392 271.607 123.359 271.294 123.239 271.01C123.12 270.727 122.919 270.485 122.662 270.316C122.404 270.147 122.103 270.058 121.795 270.061C121.592 270.061 121.391 270.101 121.203 270.179C121.015 270.257 120.845 270.372 120.702 270.516C120.558 270.661 120.445 270.832 120.369 271.021C120.292 271.209 120.254 271.411 120.255 271.614Z" fill="url(#paint23_linear_151_121)"/>
<path fill-rule="evenodd" clip-rule="evenodd" d="M233.01 53.9882C234.939 53.9428 236.805 53.2991 238.352 52.146C239.899 50.993 241.049 49.3876 241.644 47.5522C240.335 47.8055 238.986 47.765 237.695 47.4337C237.695 47.4337 237.695 47.4337 237.564 47.4337C238.804 47.1702 239.977 46.656 241.011 45.9227C242.046 45.1894 242.919 44.2525 243.578 43.1694C244.488 41.692 244.945 39.981 244.895 38.247C243.629 38.941 242.217 39.3244 240.775 39.3657C242.707 38.0395 244.07 36.0346 244.592 33.7497C245.114 31.4647 244.757 29.0671 243.592 27.0334C241.254 29.8808 238.348 32.2095 235.06 33.8706C231.772 35.5317 228.173 36.4888 224.494 36.6808C224.494 36.3123 224.6 35.9964 224.639 35.6674C224.931 33.5529 224.465 31.4032 223.323 29.5999C222.645 28.4839 221.73 27.5306 220.643 26.8073C219.556 26.0841 218.323 25.6086 217.032 25.4145C215.568 25.1529 214.062 25.2562 212.648 25.7154C211.234 26.1745 209.955 26.9753 208.924 28.0468C208.866 28.1195 208.787 28.1732 208.698 28.2013C208.609 28.2294 208.514 28.2306 208.424 28.2048C206.534 27.7916 204.718 27.0903 203.041 26.1253C203.001 26.0955 202.957 26.0732 202.909 26.0595C203.602 28.1465 204.997 29.9282 206.858 31.1003C205.082 30.9191 203.344 30.4756 201.699 29.7842C202.054 30.2448 202.396 30.7186 202.765 31.1003C203.752 32.3049 204.883 33.3834 206.134 34.3117C206.184 34.3407 206.226 34.3831 206.254 34.4342C206.282 34.4853 206.295 34.5431 206.292 34.6013C206.237 35.9724 206.294 37.3458 206.463 38.7077C207.167 44.5253 209.702 49.9685 213.702 54.2514C217.142 57.8396 221.58 60.3111 226.442 61.3454C228.139 61.7092 229.866 61.9163 231.601 61.964C236.83 62.1644 241.998 60.7888 246.434 58.0156C246.512 57.9724 246.587 57.924 246.658 57.8708C241.767 58.4444 236.848 57.0632 232.97 54.0276L233.01 53.9882Z" fill="#6CB0FF"/>
<path d="M475.996 198.321C473.873 185.241 482.755 172.916 495.835 170.793C508.915 168.67 521.239 177.552 523.363 190.632C525.486 203.712 516.604 216.037 503.524 218.16C490.444 220.283 478.119 211.401 475.996 198.321Z" fill="white"/>
<path opacity="0.6" d="M475.996 198.321C473.873 185.241 482.755 172.916 495.835 170.793C508.915 168.67 521.239 177.552 523.363 190.632C525.486 203.712 516.604 216.037 503.524 218.16C490.444 220.283 478.119 211.401 475.996 198.321Z" fill="white"/>
<path fill-rule="evenodd" clip-rule="evenodd" d="M503.61 185.84C504.426 185.84 505.229 185.84 506.032 185.84H506.374V181.655C505.939 181.655 505.492 181.55 505.058 181.523C504.242 181.523 503.412 181.444 502.583 181.523C501.328 181.508 500.099 181.885 499.069 182.603C498.503 183.016 498.024 183.539 497.663 184.14C497.301 184.742 497.063 185.409 496.963 186.104C496.869 186.7 496.82 187.303 496.819 187.907C496.819 188.841 496.819 189.789 496.819 190.723V191.079H492.87V195.764H496.819V207.609H501.649V195.856H505.597C505.808 194.29 506.005 192.75 506.203 191.144H501.609C501.609 191.144 501.609 188.828 501.609 187.815C501.688 186.301 502.57 185.88 503.61 185.84Z" fill="#5E6EFF"/>
<path d="M316.006 169.612C316.006 169.612 311.649 166.598 308.662 170.072C305.674 173.547 307.543 181.286 307.543 181.286L314.532 172.81L316.006 169.612Z" fill="#263238"/>
<path d="M221.059 216.296L229.798 215.835C231.329 223.023 233.263 230.119 235.589 237.091C236.148 238.651 236.789 240.18 237.511 241.671C238.032 242.844 238.729 243.932 239.577 244.896C239.867 245.225 239.919 245.04 240.011 245.054C241.039 245.168 242.077 245.168 243.104 245.054C246.338 244.633 249.524 243.906 252.62 242.882C255.976 241.855 259.398 240.618 262.794 239.262C266.19 237.907 269.612 236.472 273.021 235.011C276.429 233.55 279.864 231.905 283.076 230.405L291.052 246.199C287.367 248.133 283.839 249.726 280.167 251.345C276.495 252.964 272.784 254.424 268.993 255.806C265.203 257.188 261.307 258.439 257.24 259.452C252.938 260.612 248.527 261.323 244.078 261.571C241.253 261.706 238.423 261.395 235.694 260.65C234.791 260.384 233.911 260.045 233.062 259.636C232.603 259.419 232.163 259.164 231.746 258.873C231.291 258.595 230.852 258.292 230.43 257.965C229.086 256.879 227.919 255.591 226.968 254.148C225.571 251.979 224.469 249.633 223.691 247.172C223.012 245.05 222.489 242.882 222.125 240.684C221.382 236.629 220.942 232.524 220.809 228.404C220.636 224.367 220.719 220.322 221.059 216.296Z" fill="#803E3C"/>
<path d="M302.384 246.028C297.291 256.478 260.017 263.217 260.017 263.217L253.081 236.393C253.081 236.393 268.493 229.602 283.221 227.18C298.33 224.706 307.978 234.564 302.384 246.028Z" fill="url(#paint24_linear_151_121)"/>
<path d="M229.838 216.283L227.535 201.2L216.492 209.32C216.492 209.32 219.203 222.969 224.665 221.337L229.838 216.283Z" fill="#7F3E3B"/>
<path d="M219.321 192.118L212.201 202.318L216.492 209.32L227.534 201.2L219.321 192.118Z" fill="#7F3E3B"/>
<path opacity="0.2" d="M278.536 239.17L283.866 241.079L284.972 245.027L284.235 251.371L279.339 258.544C272.758 260.532 266.401 261.94 262.887 262.677C268.638 251.213 278.536 239.17 278.536 239.17Z" fill="#B3B3B3"/>
<path d="M328.68 327.55C328.68 327.55 329.207 370.536 290.209 361.625C253.041 353.136 264.768 311.52 264.768 311.52L328.68 327.55Z" fill="#263238"/>
<path d="M290.21 356.689C303.003 346.252 340.908 320.969 354.07 339.895C368.771 361.02 335.17 412.652 279.273 393.305C270.297 390.172 262.4 379.419 290.21 356.689Z" fill="#263238"/>
<path d="M242.75 327.55C188.353 317.837 185.26 334.302 194.618 348.253C203.976 362.204 235.011 395.029 290.21 391.528C310.729 390.199 311.097 339.698 242.75 327.55Z" fill="#263238"/>
<path opacity="0.2" d="M282.26 361.599C280.47 357.634 278.222 353.892 275.561 350.451C271.731 345.871 271.27 359.072 254.502 350.451C237.734 341.83 225.942 332.578 212.938 329.143C199.935 325.708 222.941 349.175 222.941 349.175L263.742 371.549L282.26 361.599Z" fill="#B3B3B3"/>
<path d="M281.234 390.843L301.384 398.569L299.686 388.395L283.063 377.524L281.234 390.843Z" fill="#7F3E3B"/>
<path d="M182.707 336.842C184.339 325.273 203.212 320.654 219.006 333.065C231.984 343.265 278.417 373.405 293.408 383.237L290.236 395.437C276.456 390.173 249.436 379.933 229.996 372.471C202.936 362.06 181.062 348.411 182.707 336.842Z" fill="#263238"/>
<path opacity="0.2" d="M292.565 354.82C299.251 340.632 313.479 337.855 321.521 337.474C311.203 342.063 301.48 347.888 292.565 354.82Z" fill="#B3B3B3"/>
<path opacity="0.2" d="M268.336 387.119C255.779 382.341 241.539 376.919 229.996 372.47L228.68 371.957L262.189 363.086C273.534 370.667 284.129 377.643 290.21 381.63L268.336 387.119Z" fill="#B3B3B3"/>
<path opacity="0.2" d="M348.817 362.573C348.817 362.573 305.2 399.517 289.235 375.839L341.947 355.781L347.857 353.149L348.817 362.573Z" fill="#B3B3B3"/>
<path d="M236.485 387.882L216.203 390.501L218.335 379.288L239.117 373.878L236.485 387.882Z" fill="#7F3E3B"/>
<path d="M222.823 376.248C232.76 373.694 255.306 368.035 269.23 362.599C288.012 355.255 335.88 335.394 351.661 344.699C362.585 351.122 351.279 360.664 351.279 360.664C351.279 360.664 346.172 369.483 306.162 377.906C277.562 383.921 242.197 388.435 224.35 390.475L222.823 376.248Z" fill="#263238"/>
<path d="M217.756 390.857L220.796 378.366C220.846 378.138 220.818 377.899 220.718 377.687C220.618 377.475 220.452 377.303 220.244 377.195L210.636 372.47C210.434 372.369 210.214 372.308 209.988 372.293C209.763 372.277 209.536 372.306 209.322 372.378C209.108 372.45 208.91 372.564 208.741 372.713C208.571 372.862 208.432 373.044 208.333 373.247C208.275 373.355 208.231 373.47 208.201 373.589C207.187 378.103 206.464 382.17 205.095 387.764C203.489 394.344 203.107 392.502 201.146 400.254C199.935 404.926 205.095 407.072 205.805 405.15C209.149 396.345 212.123 396.069 216.229 393.305C217.019 392.701 217.561 391.831 217.756 390.857Z" fill="url(#paint25_linear_151_121)"/>
<path d="M298.041 397.491L295.83 384.79C295.791 384.559 295.83 384.322 295.943 384.116C296.055 383.911 296.233 383.749 296.449 383.658L306.372 379.565C306.795 379.389 307.27 379.387 307.694 379.56C308.118 379.732 308.456 380.065 308.636 380.486C308.683 380.6 308.719 380.719 308.741 380.841C309.452 385.421 309.913 389.541 310.913 395.227C312.084 401.952 312.598 400.11 314.085 407.993C314.967 412.745 309.715 414.574 309.097 412.574C306.32 403.545 303.372 403.071 299.436 400.083C298.673 399.417 298.177 398.495 298.041 397.491Z" fill="url(#paint26_linear_151_121)"/>
<path d="M332.498 304.188C330.497 315.665 329.22 326.063 328.273 333.538C317.401 333.051 276.614 330.906 261.847 325.339C263.966 263.48 283.616 226.707 283.616 226.707C288.808 226.423 294.012 226.458 299.199 226.812C300.291 226.891 301.41 226.996 302.529 227.115C311.624 228.426 320.636 230.254 329.523 232.59C331.208 233.024 332.919 233.498 334.564 233.985C342.987 236.512 350.292 239.605 350.292 239.605C345.193 252.135 341.04 265.03 337.868 278.181C335.656 287.355 333.906 296.173 332.498 304.188Z" fill="url(#paint27_linear_151_121)"/>
<path d="M332.748 201.595C329.366 209.952 324.601 225.549 329.563 232.59C326.346 234.839 322.682 236.366 318.82 237.068C314.958 237.77 310.991 237.63 307.188 236.657C299.726 234.985 300.358 229.681 302.582 227.115C312.729 226.76 313.861 219.508 313.48 212.413L332.748 201.595Z" fill="#7F3E3B"/>
<path d="M306.938 236.617C306.938 236.617 309.031 240.816 311.624 245.067C317.086 243.501 330.05 238.947 330.958 232.392C330.581 230.906 329.696 229.598 328.457 228.694C321.757 232.474 314.491 235.15 306.938 236.617Z" fill="white"/>
<path d="M306.938 236.617C304.048 238.158 301.389 240.099 299.041 242.382C296.014 239.17 300.567 227.575 302.186 226.588C303.795 225.864 305.59 225.661 307.319 226.009C307.319 226.009 301.594 234.024 306.938 236.617Z" fill="white"/>
<path opacity="0.2" d="M324.864 206.004L313.427 212.4C313.546 214.058 313.52 215.723 313.348 217.375C317.152 217.586 323.022 214.546 324.167 210.795C324.693 209.255 324.93 207.63 324.864 206.004Z" fill="#B3B3B3"/>
<path d="M338.486 191.263C334.063 202.437 332.05 209.202 324.39 213.124C312.86 219.007 300.515 209.044 301.515 196.738C302.41 185.669 309.478 169.257 322.113 168.48C324.91 168.307 327.706 168.846 330.238 170.048C332.771 171.249 334.957 173.073 336.593 175.349C338.228 177.625 339.26 180.279 339.591 183.062C339.922 185.845 339.542 188.667 338.486 191.263Z" fill="#7F3E3B"/>
<path d="M320.178 188.63C319.875 189.552 319.138 190.144 318.533 189.946C317.927 189.749 317.677 188.828 317.98 187.906C318.283 186.985 319.02 186.38 319.625 186.59C320.231 186.801 320.481 187.696 320.178 188.63Z" fill="#263238"/>
<path d="M309.702 185.09C309.4 186.024 308.663 186.603 308.044 186.406C307.425 186.209 307.202 185.287 307.504 184.353C307.807 183.418 308.544 182.839 309.15 183.037C309.755 183.234 310.005 184.168 309.702 185.09Z" fill="#263238"/>
<path d="M312.874 186.722C310.834 189.082 308.477 191.151 305.872 192.868C307.017 194.855 310.044 195.092 310.044 195.092L312.874 186.722Z" fill="#630F0F"/>
<path d="M313.848 200.292C313.429 200.208 313.016 200.098 312.611 199.963C312.541 199.933 312.484 199.88 312.45 199.812C312.417 199.745 312.408 199.667 312.427 199.594C312.438 199.558 312.457 199.524 312.482 199.495C312.507 199.466 312.538 199.442 312.572 199.425C312.607 199.408 312.644 199.398 312.682 199.395C312.72 199.392 312.759 199.397 312.795 199.41C313.934 199.826 315.156 199.966 316.36 199.817C317.564 199.669 318.715 199.236 319.718 198.554C319.744 198.526 319.775 198.503 319.811 198.488C319.846 198.472 319.884 198.464 319.922 198.464C319.96 198.464 319.998 198.472 320.033 198.488C320.069 198.503 320.1 198.526 320.126 198.554C320.152 198.58 320.173 198.611 320.187 198.645C320.202 198.679 320.209 198.715 320.209 198.752C320.209 198.788 320.202 198.825 320.187 198.859C320.173 198.893 320.152 198.923 320.126 198.949C319.232 199.6 318.211 200.056 317.13 200.287C316.048 200.518 314.93 200.52 313.848 200.292Z" fill="#263238"/>
<path d="M324.509 186.328C324.409 186.308 324.317 186.262 324.241 186.195C324.164 186.128 324.107 186.042 324.075 185.946C323.862 185.253 323.489 184.62 322.986 184.099C322.483 183.578 321.864 183.182 321.179 182.945C321.033 182.905 320.908 182.81 320.829 182.68C320.751 182.55 320.725 182.396 320.758 182.247C320.795 182.1 320.889 181.972 321.02 181.893C321.151 181.815 321.307 181.79 321.455 181.826C322.325 182.115 323.113 182.605 323.756 183.257C324.399 183.909 324.878 184.704 325.154 185.577C325.181 185.648 325.192 185.723 325.189 185.799C325.185 185.874 325.166 185.948 325.133 186.016C325.1 186.084 325.053 186.144 324.995 186.193C324.938 186.242 324.871 186.279 324.798 186.301C324.706 186.336 324.606 186.345 324.509 186.328Z" fill="#263238"/>
<path d="M306.359 179.957C306.246 179.942 306.143 179.886 306.069 179.799C306.016 179.746 305.974 179.684 305.946 179.615C305.917 179.546 305.902 179.472 305.902 179.398C305.902 179.323 305.917 179.249 305.946 179.18C305.974 179.111 306.016 179.049 306.069 178.996C306.688 178.329 307.459 177.822 308.316 177.517C309.173 177.213 310.091 177.119 310.992 177.246C311.066 177.26 311.136 177.288 311.198 177.33C311.261 177.371 311.314 177.425 311.356 177.488C311.398 177.55 311.427 177.62 311.441 177.694C311.455 177.768 311.455 177.843 311.439 177.917C311.427 177.99 311.4 178.06 311.359 178.122C311.319 178.185 311.267 178.239 311.205 178.28C311.144 178.322 311.075 178.351 311.002 178.366C310.929 178.38 310.854 178.38 310.781 178.364C310.056 178.257 309.315 178.332 308.626 178.583C307.936 178.833 307.32 179.251 306.833 179.799C306.772 179.862 306.698 179.909 306.615 179.936C306.533 179.964 306.445 179.971 306.359 179.957Z" fill="#263238"/>
<path opacity="0.2" d="M343.105 259.624C341.144 265.888 339.42 272.114 337.92 278.181C336.275 284.867 334.893 291.343 333.721 297.489C331.563 285.078 332.879 257.478 332.879 257.478L339.683 250.897C341.11 253.686 342.256 256.609 343.105 259.624Z" fill="#B3B3B3"/>
<path d="M310.965 305.018L317.059 305.702C319.112 305.899 321.165 306.057 323.192 306.215C327.158 306.534 331.138 306.652 335.116 306.571C336.941 306.526 338.761 306.368 340.565 306.097C342.015 305.931 343.433 305.558 344.777 304.991C345.264 304.767 345.29 304.636 345.277 304.662C345.264 304.688 345.277 304.662 345.277 304.662V304.478C345.277 304.307 345.382 304.07 345.435 303.807C345.558 303.141 345.642 302.469 345.685 301.793C345.867 298.164 345.726 294.526 345.264 290.922C344.803 287.039 344.211 283.025 343.448 279.076C342 271.179 340.17 262.927 338.262 255.122L355.991 250.318C357.241 254.688 358.175 258.834 359.123 263.138C360.071 267.441 360.834 271.719 361.518 276.075C362.203 280.432 362.716 284.88 362.979 289.447C363.345 294.274 363.208 299.126 362.571 303.925C362.357 305.353 362.044 306.765 361.637 308.15C361.405 308.95 361.128 309.737 360.808 310.506C360.637 310.927 360.452 311.335 360.229 311.822L359.886 312.493L359.426 313.27C358.204 315.152 356.593 316.75 354.701 317.955C353.198 318.895 351.573 319.621 349.87 320.114C347.181 320.878 344.401 321.277 341.605 321.298C339.177 321.323 336.751 321.192 334.34 320.903C325.438 319.675 316.738 317.277 308.464 313.77L310.965 305.018Z" fill="#803E3C"/>
<path d="M353.609 241.368C363.124 248.055 366.257 282.577 366.257 282.577L336.749 286.157C334.521 276.175 333.199 266.013 332.8 255.793C332.471 239.434 342.092 233.261 353.609 241.368Z" fill="url(#paint28_linear_151_121)"/>
<path d="M313.966 305.399L305.319 296.66L299.936 311.256C299.936 311.256 308.938 317.034 312.518 312.572L313.966 305.399Z" fill="#7F3E3B"/>
<path d="M295.33 295.37L291.434 307.637L299.936 311.256L305.319 296.66L295.33 295.37Z" fill="#7F3E3B"/>
<path d="M330.957 201.199L330.194 201.068C329.747 200.97 329.333 200.758 328.993 200.452C328.653 200.146 328.399 199.756 328.255 199.322C328.112 198.887 328.084 198.423 328.175 197.974C328.265 197.526 328.471 197.109 328.772 196.764C330.747 194.701 332.042 192.083 332.484 189.262C333.418 182.26 329.602 181.286 330.102 176.495C330.102 176.495 320.573 175.245 314.532 171.086C314.532 171.086 308.596 162.491 313.347 158.438C317.296 155.029 322.152 159.675 322.152 159.675C322.152 159.675 324.205 153.41 329.115 154.753C334.024 156.095 336.038 162.847 336.038 162.847C336.038 162.847 340.776 157.582 344.342 160.215C347.909 162.847 346.646 169.717 346.646 169.717C346.646 169.717 354.042 169.915 354.293 174.218C354.543 178.522 350.107 182.326 350.107 182.326C350.107 182.326 354.529 186.459 353.305 189.907C352.081 193.355 348.041 193.724 348.041 193.724C348.041 193.724 350.818 199.607 348.857 201.528C346.896 203.45 343.079 202.95 343.079 202.95C343.079 202.95 342.96 208.596 338.42 210.202C337.506 210.536 336.521 210.625 335.562 210.458C334.603 210.292 333.705 209.877 332.958 209.254C332.958 209.254 330.72 212.532 329.312 211.623C327.904 210.715 330.957 201.199 330.957 201.199Z" fill="#263238"/>
<path d="M341.79 207.464C339.158 203.99 331.063 193.566 326.246 192.618C326.246 192.618 328.3 190.986 329.418 183.208C330.778 185.724 332.445 188.063 334.38 190.17C338.246 194.178 341.793 198.482 344.988 203.042C344.277 204.743 343.183 206.256 341.79 207.464Z" fill="url(#paint29_linear_151_121)"/>
<path opacity="0.6" d="M341.79 207.464C339.158 203.99 331.063 193.566 326.246 192.618C326.246 192.618 328.3 190.986 329.418 183.208C330.778 185.724 332.445 188.063 334.38 190.17C338.246 194.178 341.793 198.482 344.988 203.042C344.277 204.743 343.183 206.256 341.79 207.464Z" fill="white"/>
<path d="M339.789 202.2C338.913 203.407 337.808 204.43 336.537 205.209C335.265 205.988 333.852 206.509 332.379 206.741C328.431 207.32 326.917 203.635 328.431 200.16C329.747 197.028 333.445 192.948 337.222 193.961C341 194.974 341.921 199.186 339.789 202.2Z" fill="#7F3E3B"/>
<path d="M325.574 193.79C325.574 193.79 316.98 197.317 310.215 190.868C310.215 190.868 303.187 192.763 301.002 188.946L303.134 188.262L324.521 192.934L325.574 193.79Z" fill="url(#paint30_linear_151_121)"/>
<path d="M304.292 174.877L327.365 179.694C328.192 179.872 328.915 180.368 329.378 181.076L329.944 181.918C330.403 182.632 330.564 183.496 330.392 184.327L328.773 192.066C328.599 192.894 328.103 193.62 327.395 194.084C326.687 194.547 325.824 194.712 324.995 194.54L301.884 189.736C301.065 189.58 300.341 189.107 299.87 188.42L299.317 187.578C298.855 186.871 298.689 186.01 298.857 185.182L300.568 177.365C300.739 176.545 301.225 175.825 301.922 175.36C302.618 174.895 303.469 174.721 304.292 174.877Z" fill="url(#paint31_linear_151_121)"/>
<path opacity="0.3" d="M304.292 174.877L327.365 179.694C328.192 179.872 328.915 180.368 329.378 181.076L329.944 181.918C330.403 182.632 330.564 183.496 330.392 184.327L328.773 192.066C328.599 192.894 328.103 193.62 327.395 194.084C326.687 194.547 325.824 194.712 324.995 194.54L301.884 189.736C301.065 189.58 300.341 189.107 299.87 188.42L299.317 187.578C298.855 186.871 298.689 186.01 298.857 185.182L300.568 177.365C300.739 176.545 301.225 175.825 301.922 175.36C302.618 174.895 303.469 174.721 304.292 174.877Z" fill="white"/>
<path opacity="0.2" d="M304.725 175.531L324.231 179.602C325.974 179.966 327.093 181.674 326.729 183.418L325.508 189.267C325.144 191.01 323.436 192.129 321.693 191.765L302.186 187.693C300.443 187.329 299.325 185.621 299.689 183.878L300.91 178.029C301.274 176.285 302.982 175.167 304.725 175.531Z" fill="white"/>
<defs>
<filter id="filter0_f_151_121" x="0.193359" y="397.199" width="592.377" height="111.797" filterUnits="userSpaceOnUse" color-interpolation-filters="sRGB">
<feFlood flood-opacity="0" result="BackgroundImageFix"/>
<feBlend mode="normal" in="SourceGraphic" in2="BackgroundImageFix" result="shape"/>
<feGaussianBlur stdDeviation="20.5" result="effect1_foregroundBlur_151_121"/>
</filter>
<linearGradient id="paint0_linear_151_121" x1="403.063" y1="119.177" x2="403.063" y2="148.264" gradientUnits="userSpaceOnUse">
<stop stop-color="#6262E7"/>
<stop offset="1" stop-color="#BE1554"/>
</linearGradient>
<linearGradient id="paint1_linear_151_121" x1="295.981" y1="85.6509" x2="295.981" y2="444.967" gradientUnits="userSpaceOnUse">
<stop stop-color="#6262E7"/>
<stop offset="1" stop-color="#BE1554"/>
</linearGradient>
<linearGradient id="paint2_linear_151_121" x1="296.026" y1="91.6533" x2="296.026" y2="438.965" gradientUnits="userSpaceOnUse">
<stop stop-color="#6262E7"/>
<stop offset="1" stop-color="#BE1554"/>
</linearGradient>
<linearGradient id="paint3_linear_151_121" x1="189.393" y1="153.066" x2="189.393" y2="222.72" gradientUnits="userSpaceOnUse">
<stop stop-color="#6262E7"/>
<stop offset="1" stop-color="#BE1554"/>
</linearGradient>
<linearGradient id="paint4_linear_151_121" x1="169.59" y1="174.692" x2="169.59" y2="178.22" gradientUnits="userSpaceOnUse">
<stop stop-color="#6262E7"/>
<stop offset="1" stop-color="#BE1554"/>
</linearGradient>
<linearGradient id="paint5_linear_151_121" x1="172.847" y1="181.733" x2="172.847" y2="185.248" gradientUnits="userSpaceOnUse">
<stop stop-color="#6262E7"/>
<stop offset="1" stop-color="#BE1554"/>
</linearGradient>
<linearGradient id="paint6_linear_151_121" x1="172.408" y1="188.775" x2="172.408" y2="192.289" gradientUnits="userSpaceOnUse">
<stop stop-color="#6262E7"/>
<stop offset="1" stop-color="#BE1554"/>
</linearGradient>
<linearGradient id="paint7_linear_151_121" x1="174.605" y1="195.803" x2="174.605" y2="199.33" gradientUnits="userSpaceOnUse">
<stop stop-color="#6262E7"/>
<stop offset="1" stop-color="#BE1554"/>
</linearGradient>
<linearGradient id="paint8_linear_151_121" x1="173.105" y1="202.844" x2="173.105" y2="206.359" gradientUnits="userSpaceOnUse">
<stop stop-color="#6262E7"/>
<stop offset="1" stop-color="#BE1554"/>
</linearGradient>
<linearGradient id="paint9_linear_151_121" x1="213.221" y1="181.192" x2="213.221" y2="200.778" gradientUnits="userSpaceOnUse">
<stop stop-color="#6262E7"/>
<stop offset="1" stop-color="#BE1554"/>
</linearGradient>
<linearGradient id="paint10_linear_151_121" x1="235.24" y1="112.648" x2="235.24" y2="148.752" gradientUnits="userSpaceOnUse">
<stop stop-color="#6262E7"/>
<stop offset="1" stop-color="#BE1554"/>
</linearGradient>
<linearGradient id="paint11_linear_151_121" x1="143.669" y1="45.3545" x2="143.669" y2="105.371" gradientUnits="userSpaceOnUse">
<stop stop-color="#6262E7"/>
<stop offset="1" stop-color="#BE1554"/>
</linearGradient>
<linearGradient id="paint12_linear_151_121" x1="140.458" y1="62.1411" x2="140.458" y2="69.4805" gradientUnits="userSpaceOnUse">
<stop stop-color="#6262E7"/>
<stop offset="1" stop-color="#BE1554"/>
</linearGradient>
<linearGradient id="paint13_linear_151_121" x1="143.557" y1="66.479" x2="143.557" y2="72.9098" gradientUnits="userSpaceOnUse">
<stop stop-color="#6262E7"/>
<stop offset="1" stop-color="#BE1554"/>
</linearGradient>
<linearGradient id="paint14_linear_151_121" x1="144.295" y1="70.8555" x2="144.295" y2="77.3969" gradientUnits="userSpaceOnUse">
<stop stop-color="#6262E7"/>
<stop offset="1" stop-color="#BE1554"/>
</linearGradient>
<linearGradient id="paint15_linear_151_121" x1="143.487" y1="75.166" x2="143.487" y2="82.6342" gradientUnits="userSpaceOnUse">
<stop stop-color="#6262E7"/>
<stop offset="1" stop-color="#BE1554"/>
</linearGradient>
<linearGradient id="paint16_linear_151_121" x1="146.594" y1="79.6064" x2="146.594" y2="86.0462" gradientUnits="userSpaceOnUse">
<stop stop-color="#6262E7"/>
<stop offset="1" stop-color="#BE1554"/>
</linearGradient>
<linearGradient id="paint17_linear_151_121" x1="147.413" y1="84.001" x2="147.413" y2="90.5168" gradientUnits="userSpaceOnUse">
<stop stop-color="#6262E7"/>
<stop offset="1" stop-color="#BE1554"/>
</linearGradient>
<linearGradient id="paint18_linear_151_121" x1="446.034" y1="17.624" x2="446.034" y2="76.0998" gradientUnits="userSpaceOnUse">
<stop stop-color="#6262E7"/>
<stop offset="1" stop-color="#BE1554"/>
</linearGradient>
<linearGradient id="paint19_linear_151_121" x1="464.774" y1="254.897" x2="474.696" y2="301.578" gradientUnits="userSpaceOnUse">
<stop stop-color="#6262E7"/>
<stop offset="1" stop-color="#BE1554"/>
</linearGradient>
<linearGradient id="paint20_linear_151_121" x1="485.907" y1="277.958" x2="485.907" y2="303.702" gradientUnits="userSpaceOnUse">
<stop stop-color="#6262E7"/>
<stop offset="1" stop-color="#BE1554"/>
</linearGradient>
<linearGradient id="paint21_linear_151_121" x1="460.987" y1="268.547" x2="460.987" y2="308.966" gradientUnits="userSpaceOnUse">
<stop stop-color="#6262E7"/>
<stop offset="1" stop-color="#BE1554"/>
</linearGradient>
<linearGradient id="paint22_linear_151_121" x1="469.706" y1="245.791" x2="469.706" y2="310.677" gradientUnits="userSpaceOnUse">
<stop stop-color="#6262E7"/>
<stop offset="1" stop-color="#BE1554"/>
</linearGradient>
<linearGradient id="paint23_linear_151_121" x1="128.63" y1="265.572" x2="128.63" y2="291.369" gradientUnits="userSpaceOnUse">
<stop stop-color="#7651C7"/>
<stop offset="1" stop-color="#AC2471"/>
</linearGradient>
<linearGradient id="paint24_linear_151_121" x1="278.536" y1="226.796" x2="278.536" y2="263.217" gradientUnits="userSpaceOnUse">
<stop stop-color="#6262E7"/>
<stop offset="1" stop-color="#BE1554"/>
</linearGradient>
<linearGradient id="paint25_linear_151_121" x1="210.892" y1="372.289" x2="210.892" y2="405.853" gradientUnits="userSpaceOnUse">
<stop stop-color="#6262E7"/>
<stop offset="1" stop-color="#BE1554"/>
</linearGradient>
<linearGradient id="paint26_linear_151_121" x1="305" y1="379.432" x2="305" y2="413.374" gradientUnits="userSpaceOnUse">
<stop stop-color="#6262E7"/>
<stop offset="1" stop-color="#BE1554"/>
</linearGradient>
<linearGradient id="paint27_linear_151_121" x1="306.069" y1="226.517" x2="306.069" y2="333.538" gradientUnits="userSpaceOnUse">
<stop stop-color="#6262E7"/>
<stop offset="1" stop-color="#BE1554"/>
</linearGradient>
<linearGradient id="paint28_linear_151_121" x1="349.524" y1="237.816" x2="349.524" y2="286.157" gradientUnits="userSpaceOnUse">
<stop stop-color="#6262E7"/>
<stop offset="1" stop-color="#BE1554"/>
</linearGradient>
<linearGradient id="paint29_linear_151_121" x1="335.617" y1="183.208" x2="335.617" y2="207.464" gradientUnits="userSpaceOnUse">
<stop stop-color="#6262E7"/>
<stop offset="1" stop-color="#BE1554"/>
</linearGradient>
<linearGradient id="paint30_linear_151_121" x1="313.288" y1="188.262" x2="313.288" y2="194.752" gradientUnits="userSpaceOnUse">
<stop stop-color="#6262E7"/>
<stop offset="1" stop-color="#BE1554"/>
</linearGradient>
<linearGradient id="paint31_linear_151_121" x1="314.626" y1="174.821" x2="314.626" y2="194.607" gradientUnits="userSpaceOnUse">
<stop stop-color="#6262E7"/>
<stop offset="1" stop-color="#BE1554"/>
</linearGradient>
</defs>
</svg>
